<svg xmlns="http://www.w3.org/2000/svg" width="256" height="256"><path fill-opacity=".016" d="M0 128.004v128.004l128.25-.254 128.25-.254.254-127.75L257.008 0H0v128.004m.485.496c0 70.4.119 99.053.265 63.672.146-35.38.146-92.98 0-128C.604 29.153.485 58.1.485 128.5" fill="#1976D2" fill-rule="evenodd"/><path fill-opacity=".135" d="M86.45 4.929c-.523.51-7.025 1.137-14.45 1.392-7.425.255-15.544.876-18.041 1.381-10.279 2.077-21.454 9.715-28.618 19.56-2.096 2.881-4.162 5.688-4.59 6.238-3.047 3.911-8.686 14.426-12.87 24C5.705 62.478 2 73.659 2 75.246 2 76.211 1.55 77 1 77s-1 1.125-1 2.5C0 81.858.307 82 5.396 82h5.396l3.317-5.25c7.475-11.829 17.743-22.893 23.997-25.86 9.825-4.66 11.384-4.957 29.272-5.57l13.878-.476-.662 2.638c-.364 1.45-1.096 7.672-1.626 13.827-1.999 23.219-5.306 46.299-8.41 58.691-.895 3.575-1.871 7.625-2.168 9-.297 1.375-.894 3.4-1.327 4.5-.432 1.1-1.328 3.8-1.991 6-1.551 5.15-2.094 6.48-6.327 15.5-1.935 4.125-4.252 9.157-5.147 11.182-.895 2.025-7.225 12.038-14.066 22.25-6.841 10.213-13.172 20.256-14.069 22.318-.897 2.063-2.043 4.531-2.547 5.486-.504.955-.916 5.255-.916 9.555 0 6.887.339 8.347 2.849 12.263 3.289 5.133 5.116 6.858 10.651 10.051 3.525 2.033 5.307 2.305 15 2.283 11.175-.025 11.999-.236 18.824-4.819C73.838 242.538 83 228.025 83 223.905c0-.983.398-2.033.885-2.334.486-.3 1.134-1.79 1.438-3.309.305-1.519.999-4.562 1.543-6.762 3.789-15.33 5.918-25.592 7.26-35 .549-3.85 1.42-9.925 1.935-13.5.515-3.575 1.363-10.55 1.883-15.5.52-4.95 1.192-11.025 1.494-13.5 1.962-16.096 4.184-42.565 5.582-66.5.546-9.35 1.14-18.125 1.319-19.5l.326-2.5 26.265-.267 26.265-.267-.506 4.767c-.278 2.622-.989 10.167-1.58 16.767-.591 6.6-1.315 13.125-1.609 14.5-.497 2.322-.973 7.317-3.618 38-1.826 21.175-2.703 33.37-3.774 52.5-.586 10.45-1.259 19.9-1.497 21-.444 2.056 1.607 20.817 2.569 23.5.296.825 1.111 3.272 1.812 5.438 1.588 4.911 6.883 13.212 10.654 16.705 4.172 3.863 13.965 9.857 16.106 9.857 1.016 0 2.395.547 3.064 1.216 1.827 1.827 28.376 1.703 34.184-.159 12.488-4.003 24.015-14.911 30.707-29.057 3.09-6.534 7.293-18.253 7.293-20.337 0-.987.392-2.552.872-3.479.48-.926 1.186-5.397 1.569-9.934l.696-8.25h-5.455c-5.155 0-5.484.151-5.986 2.75-2.06 10.664-6.629 19.192-12.513 23.356-5.846 4.136-15.173 5.815-21.562 3.882-15.464-4.68-18.201-9.048-20.698-33.043-1.358-13.045-1.143-19.027 3.085-85.945.539-8.525 1.257-21.906 1.597-29.736l.617-14.235 30.139-.265L255.5 44.5l.279-18c.194-12.552-.084-18.681-.919-20.25L253.662 4h-83.131c-49.81 0-83.512.372-84.081.929" fill="#1976D2" fill-rule="evenodd"/><path fill-opacity=".433" d="M70 6.652c-7.368.504-18.197 2.47-22.905 4.158C33.579 15.658 17.881 35.154 7.889 59.5c-2.67 6.507-6.043 18.657-5.541 19.964.368.959 1.85 1.536 3.946 1.536 3.507 0 6.295-2.234 8.737-7 1.944-3.797 7.729-10.874 13.914-17.024C38.494 47.482 47.375 44.659 68 44.563l13.5-.063-.131 2.5c-1.361 26.021-8.629 72.87-13.574 87.5-5.455 16.137-15.516 36.793-24.133 49.549-17.621 26.081-20.431 31.197-21.331 38.82-1.198 10.148 4.202 19.548 14.007 24.383 4.98 2.456 7.036 2.878 14.108 2.898 6.876.019 9.115-.401 13.207-2.474 12.814-6.493 19.925-21.113 26.351-54.176.641-3.3 1.376-6.9 1.633-8 .257-1.1.862-4.7 1.345-8l2.49-17c3.107-21.213 6.259-56.132 8.577-95 .623-10.45 1.603-19.57 2.178-20.266.805-.976 7.041-1.206 27.159-1l26.114.266-.266 5c-.146 2.75-.694 9.275-1.219 14.5-.524 5.225-1.431 14.9-2.015 21.5-.584 6.6-1.484 16.275-2.001 21.5-.516 5.225-1.644 18.05-2.505 28.5-.862 10.45-2 23.127-2.53 28.17-1.567 14.907-1.225 43.533.603 50.59 5.425 20.933 19.679 33.295 41.172 35.705 14.651 1.643 28.912-1.904 38.795-9.648 11.631-9.115 22.04-31.18 24.915-52.817.366-2.75.887-5.763 1.158-6.695.375-1.289-.333-1.85-2.952-2.342-4.297-.806-7.655.877-7.655 3.836 0 5.103-5.492 16.521-9.958 20.701-9.191 8.604-27.062 8.443-37.258-.335-7.899-6.802-11.253-31.676-8.881-65.857.661-9.519 1.85-26.983 2.641-38.808a7563.125 7563.125 0 012.629-37.75l1.19-16.25h59.681l-.272-18.75L254.5 6.5l-90-.078c-49.5-.043-92.025.061-94.5.23" fill="#1976D2" fill-rule="evenodd"/><path fill-opacity=".984" d="M63.5 8.144c-16.664 2.465-22.432 5.092-31.622 14.402C22.315 32.235 14.693 45.001 7.724 63c-5.822 15.039-5.839 17.487-.117 16.828 2.299-.264 3.809-1.781 7.795-7.828 9.251-14.033 18.75-22.369 29.513-25.897C50.301 44.337 53.782 44 66.606 44c8.402 0 15.46.337 15.686.75.225.413.037 4.125-.418 8.25-.455 4.125-1.303 12-1.884 17.5-2.622 24.829-4.951 39.449-8.522 53.5-.908 3.575-1.887 7.743-2.175 9.262-.288 1.519-.922 3.009-1.408 3.309-.487.301-.885 1.427-.885 2.502 0 1.075-.397 2.736-.883 3.691-.486.955-1.317 2.861-1.847 4.236-4.838 12.55-14.18 29.266-26.826 48C25.996 211.958 23 218.277 23 225.464c0 9.098 5.515 17.208 14.609 21.482 6.203 2.916 19.618 2.898 25.856-.035 9.37-4.404 16.983-16.199 20.597-31.911.443-1.925 1.281-5.3 1.863-7.5.582-2.2 1.956-8.5 3.052-14l2.991-15c.549-2.75 1.224-7.025 1.5-9.5.277-2.475.957-8.1 1.511-12.5 3.547-28.13 7.076-67.98 8.854-100l.667-12 27.434-.266c15.088-.147 27.729.078 28.09.5.72.841.038 10.35-2.495 34.766-1.822 17.558-2.989 30.212-4.609 50-.585 7.15-1.497 17.95-2.026 24-2.643 30.232-2.195 57.467 1.084 66 4.9 12.751 14.882 23.109 25.522 26.486 2.2.699 5.034 1.662 6.297 2.142s7.533.872 13.933.872c15.363 0 24.478-3.14 33.805-11.644 11.002-10.031 20.046-31.551 22.139-52.674l.576-5.818-3.875.318c-3.492.287-3.903.615-4.16 3.318-.157 1.65-.666 3.9-1.131 5-.464 1.1-1.625 3.875-2.578 6.166-2.499 6.005-8.266 11.966-13.839 14.305-6.858 2.879-18.056 2.797-24.386-.179-9.412-4.424-12.187-8.73-15.338-23.796-1.281-6.123-.689-53.128.975-77.496.526-7.7 1.421-21.425 1.989-30.5.567-9.075 1.335-19.987 1.706-24.25l.676-7.75H254V7l-92.25.128c-50.738.071-94.95.528-98.25 1.016" fill="#1976D2" fill-rule="evenodd"/></svg>